<svg id="Layer_1" data-name="Layer 1" xmlns="http://www.w3.org/2000/svg" viewBox="0 0 512 512"><defs><style>.cls-1{fill:#f56643;}</style></defs><title>icon</title><polygon class="cls-1" points="422.56 374.97 422.56 398.76 89.44 398.76 89.44 374.97 65.65 374.97 65.65 422.56 446.35 422.56 446.35 374.97 422.56 374.97 422.56 374.97 422.56 374.97"/><polygon class="cls-1" points="398.77 374.97 422.56 374.97 422.56 327.38 398.77 327.38 398.77 374.97 398.77 374.97 398.77 374.97"/><polygon class="cls-1" points="351.18 208.41 327.38 208.41 327.38 232.21 351.18 232.21 351.18 208.41 351.18 208.41 351.18 208.41"/><polygon class="cls-1" points="327.38 160.82 351.18 160.82 351.18 137.03 327.38 137.03 327.38 160.82 327.38 160.82 327.38 160.82"/><polygon class="cls-1" points="303.59 184.62 327.38 184.62 327.38 160.82 303.59 160.82 303.59 184.62 303.59 184.62 303.59 184.62"/><polygon class="cls-1" points="279.8 351.18 279.8 374.97 327.38 374.97 327.38 351.18 279.8 351.18 279.8 351.18 279.8 351.18"/><polygon class="cls-1" points="279.8 160.82 256 160.82 256 184.62 279.8 184.62 279.8 160.82 303.59 160.82 303.59 137.03 279.8 137.03 279.8 160.82 279.8 160.82 279.8 160.82"/><polygon class="cls-1" points="232.2 208.41 256 208.41 256 184.62 232.2 184.62 232.2 208.41 232.2 208.41 232.2 208.41"/><polygon class="cls-1" points="208.41 232.21 232.2 232.21 232.2 208.41 208.41 208.41 208.41 232.21 208.41 232.21 208.41 232.21"/><polygon class="cls-1" points="184.62 351.18 184.62 374.97 232.2 374.97 232.2 351.18 184.62 351.18 184.62 351.18 184.62 351.18"/><polygon class="cls-1" points="184.62 184.62 184.62 208.41 208.41 208.41 208.41 184.62 184.62 184.62 184.62 184.62 184.62 184.62"/><polygon class="cls-1" points="184.62 208.41 160.83 208.41 160.83 232.21 184.62 232.21 184.62 208.41 184.62 208.41 184.62 208.41"/><path class="cls-1" d="M113.23,89.44V327.38H137v23.8h47.59v-23.8H232.2v23.8h47.6v-23.8h47.58v23.8H375v-23.8h23.8V89.44ZM375,303.59H137v-23.8H375v23.8ZM375,256H327.38V232.21H303.59V256H160.83V232.21H137v-119H303.59V137h23.79V113.24h23.8V137H375Z"/><polygon class="cls-1" points="113.23 351.18 113.23 327.38 89.44 327.38 89.44 374.97 113.23 374.97 113.23 351.18 113.23 351.18 113.23 351.18"/></svg>