<svg id="Layer_1" data-name="Layer 1" xmlns="http://www.w3.org/2000/svg" viewBox="0 0 512 512"><defs><style>.cls-1{fill:#6459b6;}</style></defs><title>icon-19</title><polygon class="cls-1" points="422.56 160.82 422.56 398.76 446.35 398.76 446.35 160.82 422.56 160.82 422.56 160.82"/><polygon class="cls-1" points="398.77 422.56 422.56 422.56 422.56 398.76 398.77 398.76 398.77 422.56 398.77 422.56"/><polygon class="cls-1" points="422.56 160.82 422.56 137.03 398.77 137.03 398.77 160.82 422.56 160.82 422.56 160.82"/><rect class="cls-1" x="113.23" y="422.56" width="285.53" height="47.59"/><path class="cls-1" d="M113.23,160.82V398.76H398.77V160.82ZM375,375H279.8V351.18H256V375H137V279.79h23.8V256H137V184.62H303.59v23.79h23.79V184.62h23.8v23.79H375V375Z"/><polygon class="cls-1" points="327.38 232.21 351.18 232.21 351.18 208.41 327.38 208.41 327.38 232.21 327.38 232.21"/><polygon class="cls-1" points="327.38 303.59 303.59 303.59 303.59 327.38 327.38 327.38 327.38 303.59 327.38 303.59"/><polygon class="cls-1" points="303.59 256 327.38 256 327.38 232.21 303.59 232.21 303.59 256 303.59 256"/><polygon class="cls-1" points="303.59 327.38 279.8 327.38 279.8 351.18 303.59 351.18 303.59 327.38 303.59 327.38"/><polygon class="cls-1" points="279.8 279.79 303.59 279.79 303.59 256 279.8 256 279.8 279.79 279.8 279.79"/><polygon class="cls-1" points="279.8 232.21 303.59 232.21 303.59 208.41 279.8 208.41 279.8 232.21 279.8 232.21"/><polygon class="cls-1" points="256 232.21 256 256 279.8 256 279.8 232.21 256 232.21 256 232.21"/><polygon class="cls-1" points="232.2 279.79 256 279.79 256 256 232.2 256 232.2 279.79 232.2 279.79"/><polygon class="cls-1" points="208.41 303.59 232.2 303.59 232.2 279.79 208.41 279.79 208.41 303.59 208.41 303.59"/><polygon class="cls-1" points="184.62 327.38 208.41 327.38 208.41 303.59 184.62 303.59 184.62 327.38 184.62 327.38"/><polygon class="cls-1" points="184.62 232.21 160.83 232.21 160.83 256 184.62 256 184.62 232.21 184.62 232.21"/><polygon class="cls-1" points="398.77 137.03 398.77 113.24 279.8 113.24 279.8 89.45 232.2 89.45 232.2 113.24 113.23 113.24 113.23 137.03 398.77 137.03"/><polygon class="cls-1" points="89.44 398.76 89.44 422.56 113.23 422.56 113.23 398.76 89.44 398.76 89.44 398.76"/><polygon class="cls-1" points="113.23 137.03 89.44 137.03 89.44 160.82 113.23 160.82 113.23 137.03 113.23 137.03"/><rect class="cls-1" x="65.65" y="160.82" width="23.8" height="237.94"/><polygon class="cls-1" points="327.38 41.85 303.59 41.85 303.59 65.65 327.38 65.65 327.38 41.85 327.38 41.85"/><polygon class="cls-1" points="303.59 65.65 279.8 65.65 279.8 89.45 303.59 89.45 303.59 65.65 303.59 65.65"/><polygon class="cls-1" points="184.62 41.85 184.62 65.65 208.41 65.65 208.41 41.85 184.62 41.85 184.62 41.85"/><polygon class="cls-1" points="208.41 65.65 208.41 89.45 232.2 89.45 232.2 65.65 208.41 65.65 208.41 65.65"/></svg>