<svg id="Layer_1" data-name="Layer 1" xmlns="http://www.w3.org/2000/svg" viewBox="0 0 512 512"><defs><style>.cls-1{fill:#6459b6;}</style></defs><title>icon</title><polygon class="cls-1" points="363.08 196.52 363.08 220.31 386.87 220.31 386.87 196.52 363.08 196.52 363.08 196.52"/><polygon class="cls-1" points="339.28 267.89 363.08 267.89 363.08 244.1 339.28 244.1 339.28 267.89 339.28 267.89"/><polygon class="cls-1" points="339.28 172.72 339.28 196.52 363.08 196.52 363.08 172.72 339.28 172.72 339.28 172.72"/><polygon class="cls-1" points="315.49 220.31 315.49 244.1 339.28 244.1 339.28 220.31 315.49 220.31 315.49 220.31"/><rect class="cls-1" x="172.73" y="148.93" width="166.56" height="23.8"/><polygon class="cls-1" points="291.69 291.69 315.49 291.69 315.49 267.89 291.69 267.89 291.69 291.69 291.69 291.69"/><rect class="cls-1" x="196.52" y="196.52" width="118.97" height="23.79"/><rect class="cls-1" x="220.31" y="244.11" width="71.38" height="23.79"/><polygon class="cls-1" points="267.9 291.69 244.1 291.69 244.1 315.49 220.31 315.49 220.31 339.28 244.1 339.28 244.1 363.07 267.9 363.07 267.9 339.28 291.69 339.28 291.69 315.49 267.9 315.49 267.9 291.69 267.9 291.69"/><polygon class="cls-1" points="196.51 291.69 220.31 291.69 220.31 267.89 196.51 267.89 196.51 291.69 196.51 291.69"/><polygon class="cls-1" points="172.72 244.1 196.51 244.1 196.51 220.31 172.72 220.31 172.72 244.1 172.72 244.1"/><polygon class="cls-1" points="148.93 267.89 172.72 267.89 172.72 244.1 148.93 244.1 148.93 267.89 148.93 267.89"/><polygon class="cls-1" points="148.93 196.52 172.72 196.52 172.72 172.72 148.93 172.72 148.93 196.52 148.93 196.52"/><polygon class="cls-1" points="125.13 220.31 148.93 220.31 148.93 196.52 125.13 196.52 125.13 220.31 125.13 220.31"/></svg>