<svg id="Layer_1" data-name="Layer 1" xmlns="http://www.w3.org/2000/svg" viewBox="0 0 512 512"><defs><style>.cls-1{fill:#6459b6;}</style></defs><title>icon</title><rect class="cls-1" x="374.97" y="113.23" width="23.8" height="285.53"/><rect class="cls-1" x="351.18" y="398.77" width="23.79" height="23.79"/><rect class="cls-1" x="351.18" y="89.44" width="23.79" height="23.79"/><path class="cls-1" d="M160.83,113.23V398.77H232.2v23.79H160.83v23.79H351.18V422.56H279.8V398.77h71.38V113.23Zm166.55,71.39H303.59v23.79h23.79V375h-119v-23.8H184.62V137h119v23.8h23.79Z"/><rect class="cls-1" x="279.8" y="208.41" width="23.79" height="23.79"/><rect class="cls-1" x="279.8" y="160.83" width="23.79" height="23.79"/><rect class="cls-1" x="256" y="184.62" width="23.8" height="23.8"/><rect class="cls-1" x="232.2" y="303.59" width="23.8" height="23.8"/><rect class="cls-1" x="232.2" y="208.41" width="23.8" height="23.79"/><rect class="cls-1" x="208.41" y="327.38" width="23.79" height="23.79"/><rect class="cls-1" x="208.41" y="232.2" width="23.79" height="23.8"/><polygon class="cls-1" points="351.18 89.44 351.18 65.65 160.83 65.65 160.83 89.44 208.41 89.44 351.18 89.44"/><rect class="cls-1" x="137.03" y="398.77" width="23.8" height="23.79"/><rect class="cls-1" x="137.03" y="89.44" width="23.8" height="23.79"/><polygon class="cls-1" points="137.03 113.23 113.23 113.23 113.23 398.77 137.03 398.77 137.03 351.17 137.03 113.23"/></svg>