<svg id="Layer_1" data-name="Layer 1" xmlns="http://www.w3.org/2000/svg" viewBox="0 0 512 512"><defs><style>.cls-1{fill:#6459b6;}</style></defs><title>icon</title><path class="cls-1" d="M422.56,137V113.24H89.44V137H65.65V375H89.44v23.79H422.56V375h23.79V137Zm-95.18,23.79h0v23.79h23.8V160.82H375V351.18H303.59v-23.8H279.8v23.8H208.41v-23.8H184.62v23.8H113.23v-119H137v-23.8h-23.8V160.82h47.6v23.79h23.79V160.82H279.8v23.79h23.79V160.82h23.79ZM422.56,256v23.79H398.77V232.21h23.79V256Z"/><polygon class="cls-1" points="303.59 208.41 327.38 208.41 327.38 184.61 303.59 184.61 303.59 208.41 303.59 208.41"/><polygon class="cls-1" points="256 208.41 279.8 208.41 279.8 184.61 256 184.61 256 208.41 256 208.41"/><polygon class="cls-1" points="232.2 232.21 256 232.21 256 208.41 232.2 208.41 232.2 232.21 232.2 232.21"/><polygon class="cls-1" points="232.2 303.58 208.41 303.58 208.41 327.38 232.2 327.38 232.2 303.58 232.2 303.58"/><polygon class="cls-1" points="208.41 256 232.2 256 232.2 232.21 208.41 232.21 208.41 256 208.41 256"/><polygon class="cls-1" points="184.62 279.79 208.41 279.79 208.41 256 184.62 256 184.62 279.79 184.62 279.79"/><polygon class="cls-1" points="160.83 184.61 137.03 184.61 137.03 208.41 160.83 208.41 160.83 184.61 160.83 184.61"/></svg>