<svg id="Layer_1" data-name="Layer 1" xmlns="http://www.w3.org/2000/svg" viewBox="0 0 512 512"><defs><style>.cls-1{fill:#6459b6;}</style></defs><title>icon-19</title><polygon class="cls-1" points="422.56 148.93 422.56 410.66 398.76 410.66 398.76 434.45 446.35 434.45 446.35 148.93 422.56 148.93 422.56 148.93"/><polygon class="cls-1" points="422.56 148.93 422.56 125.13 398.76 125.13 398.76 148.93 422.56 148.93 422.56 148.93"/><rect class="cls-1" x="327.38" y="386.87" width="71.38" height="23.79"/><polygon class="cls-1" points="398.76 363.07 398.76 339.27 374.97 339.27 374.97 363.07 398.76 363.07 398.76 363.07"/><polygon class="cls-1" points="398.76 291.69 398.76 267.9 374.97 267.9 374.97 291.69 398.76 291.69 398.76 291.69"/><polygon class="cls-1" points="327.38 363.07 351.17 363.07 351.17 339.27 374.97 339.27 374.97 315.49 351.17 315.49 351.17 267.9 374.97 267.9 374.97 244.1 351.17 244.1 351.17 125.13 398.76 125.13 398.76 101.33 351.17 101.33 351.17 77.55 303.59 77.55 303.59 101.33 327.38 101.33 327.38 363.07"/><polygon class="cls-1" points="303.59 363.07 303.59 386.87 327.38 386.87 327.38 363.07 303.59 363.07 303.59 363.07"/><polygon class="cls-1" points="279.79 410.66 303.59 410.66 303.59 386.87 279.79 386.87 279.79 410.66 279.79 410.66"/><polygon class="cls-1" points="303.59 101.33 279.79 101.33 279.79 125.13 303.59 125.13 303.59 101.33 303.59 101.33"/><polygon class="cls-1" points="279.79 125.13 256 125.13 256 148.93 279.79 148.93 279.79 125.13 279.79 125.13"/><polygon class="cls-1" points="256 148.93 232.2 148.93 232.2 410.66 208.41 410.66 208.41 434.45 279.79 434.45 279.79 410.66 256 410.66 256 148.93"/><polygon class="cls-1" points="232.2 148.93 232.2 125.13 208.41 125.13 208.41 148.93 232.2 148.93 232.2 148.93"/><rect class="cls-1" x="113.23" y="386.87" width="95.17" height="23.79"/><polygon class="cls-1" points="184.62 267.9 208.41 267.9 208.41 244.1 184.62 244.1 184.62 267.9 184.62 267.9"/><polygon class="cls-1" points="184.62 196.51 208.41 196.51 208.41 172.72 184.62 172.72 184.62 196.51 184.62 196.51"/><polygon class="cls-1" points="160.82 220.31 137.03 220.31 137.03 244.1 184.62 244.1 184.62 220.31 160.82 220.31 160.82 220.31"/><rect class="cls-1" x="137.03" y="148.93" width="47.59" height="23.79"/><rect class="cls-1" x="113.23" y="101.34" width="95.17" height="23.8"/><polygon class="cls-1" points="113.23 267.9 137.03 267.9 137.03 244.1 113.23 244.1 113.23 267.9 113.23 267.9"/><polygon class="cls-1" points="113.23 196.51 137.03 196.51 137.03 172.72 113.23 172.72 113.23 196.51 113.23 196.51"/><polygon class="cls-1" points="113.23 125.13 89.44 125.13 89.44 148.93 113.23 148.93 113.23 125.13 113.23 125.13"/><polygon class="cls-1" points="89.44 148.93 65.65 148.93 65.65 434.45 113.23 434.45 113.23 410.66 89.44 410.66 89.44 148.93"/></svg>