<svg id="Layer_1" data-name="Layer 1" xmlns="http://www.w3.org/2000/svg" viewBox="0 0 512 512"><defs><style>.cls-1{fill:#fff;}</style></defs><title>icon</title><polygon class="cls-1" points="386.87 208.41 363.07 208.41 363.07 232.2 386.87 232.2 386.87 279.79 363.07 279.79 363.07 303.59 410.66 303.59 410.66 208.41 386.87 208.41 386.87 208.41"/><polygon class="cls-1" points="339.28 327.38 363.07 327.38 363.07 303.59 339.28 303.59 339.28 327.38 339.28 327.38"/><polygon class="cls-1" points="363.07 208.41 363.07 184.62 339.28 184.62 339.28 208.41 363.07 208.41 363.07 208.41"/><polygon class="cls-1" points="315.49 351.17 339.28 351.17 339.28 327.38 315.49 327.38 315.49 351.17 315.49 351.17"/><polygon class="cls-1" points="339.28 184.62 339.28 160.82 315.49 160.82 315.49 184.62 339.28 184.62 339.28 184.62"/><polygon class="cls-1" points="291.69 327.38 291.69 160.82 315.49 160.82 315.49 137.03 267.89 137.03 267.89 374.97 315.49 374.97 315.49 351.17 291.69 351.17 291.69 327.38 291.69 327.38"/><polygon class="cls-1" points="244.1 303.59 244.1 279.79 220.31 279.79 220.31 303.59 244.1 303.59 244.1 303.59"/><polygon class="cls-1" points="220.31 232.2 244.1 232.2 244.1 208.41 220.31 208.41 220.31 232.2 220.31 232.2"/><polygon class="cls-1" points="196.51 351.17 220.31 351.17 220.31 327.38 196.51 327.38 196.51 351.17 196.51 351.17"/><rect class="cls-1" x="196.51" y="232.2" width="23.8" height="47.59"/><polygon class="cls-1" points="220.31 160.82 196.51 160.82 196.51 184.62 220.31 184.62 220.31 160.82 220.31 160.82"/><polygon class="cls-1" points="172.72 303.59 172.72 327.38 196.51 327.38 196.51 303.59 172.72 303.59 172.72 303.59"/><polygon class="cls-1" points="196.51 184.62 172.72 184.62 172.72 208.41 196.51 208.41 196.51 184.62 196.51 184.62"/><polygon class="cls-1" points="148.93 374.97 172.72 374.97 172.72 351.17 148.93 351.17 148.93 374.97 148.93 374.97"/><rect class="cls-1" x="148.93" y="208.41" width="23.8" height="95.18"/><polygon class="cls-1" points="172.72 137.03 148.93 137.03 148.93 160.82 172.72 160.82 172.72 137.03 172.72 137.03"/><polygon class="cls-1" points="125.14 327.38 125.14 351.17 148.93 351.17 148.93 327.38 125.14 327.38 125.14 327.38"/><polygon class="cls-1" points="148.93 160.82 125.14 160.82 125.14 184.62 148.93 184.62 148.93 160.82 148.93 160.82"/><rect class="cls-1" x="101.34" y="184.62" width="23.8" height="142.76"/></svg>